%TF.GenerationSoftware,KiCad,Pcbnew,7.0.7*%
%TF.CreationDate,2024-03-19T15:58:56-04:00*%
%TF.ProjectId,apds9960_breakout,61706473-3939-4363-905f-627265616b6f,rev?*%
%TF.SameCoordinates,Original*%
%TF.FileFunction,Copper,L1,Top*%
%TF.FilePolarity,Positive*%
%FSLAX46Y46*%
G04 Gerber Fmt 4.6, Leading zero omitted, Abs format (unit mm)*
G04 Created by KiCad (PCBNEW 7.0.7) date 2024-03-19 15:58:56*
%MOMM*%
%LPD*%
G01*
G04 APERTURE LIST*
G04 Aperture macros list*
%AMRoundRect*
0 Rectangle with rounded corners*
0 $1 Rounding radius*
0 $2 $3 $4 $5 $6 $7 $8 $9 X,Y pos of 4 corners*
0 Add a 4 corners polygon primitive as box body*
4,1,4,$2,$3,$4,$5,$6,$7,$8,$9,$2,$3,0*
0 Add four circle primitives for the rounded corners*
1,1,$1+$1,$2,$3*
1,1,$1+$1,$4,$5*
1,1,$1+$1,$6,$7*
1,1,$1+$1,$8,$9*
0 Add four rect primitives between the rounded corners*
20,1,$1+$1,$2,$3,$4,$5,0*
20,1,$1+$1,$4,$5,$6,$7,0*
20,1,$1+$1,$6,$7,$8,$9,0*
20,1,$1+$1,$8,$9,$2,$3,0*%
G04 Aperture macros list end*
%TA.AperFunction,ComponentPad*%
%ADD10R,1.700000X1.700000*%
%TD*%
%TA.AperFunction,ComponentPad*%
%ADD11O,1.700000X1.700000*%
%TD*%
%TA.AperFunction,SMDPad,CuDef*%
%ADD12R,0.600000X0.720000*%
%TD*%
%TA.AperFunction,SMDPad,CuDef*%
%ADD13RoundRect,0.200000X0.275000X-0.200000X0.275000X0.200000X-0.275000X0.200000X-0.275000X-0.200000X0*%
%TD*%
%TA.AperFunction,SMDPad,CuDef*%
%ADD14RoundRect,0.200000X-0.275000X0.200000X-0.275000X-0.200000X0.275000X-0.200000X0.275000X0.200000X0*%
%TD*%
%TA.AperFunction,SMDPad,CuDef*%
%ADD15RoundRect,0.250000X0.250000X0.475000X-0.250000X0.475000X-0.250000X-0.475000X0.250000X-0.475000X0*%
%TD*%
%TA.AperFunction,SMDPad,CuDef*%
%ADD16RoundRect,0.225000X-0.250000X0.225000X-0.250000X-0.225000X0.250000X-0.225000X0.250000X0.225000X0*%
%TD*%
%TA.AperFunction,SMDPad,CuDef*%
%ADD17RoundRect,0.225000X0.225000X0.250000X-0.225000X0.250000X-0.225000X-0.250000X0.225000X-0.250000X0*%
%TD*%
%TA.AperFunction,ViaPad*%
%ADD18C,0.800000*%
%TD*%
%TA.AperFunction,Conductor*%
%ADD19C,0.400000*%
%TD*%
G04 APERTURE END LIST*
D10*
%TO.P,J1,1,Pin_1*%
%TO.N,SCL*%
X126365000Y-85090000D03*
D11*
%TO.P,J1,2,Pin_2*%
%TO.N,SDA*%
X126365000Y-87630000D03*
%TO.P,J1,3,Pin_3*%
%TO.N,+3V3*%
X126365000Y-90170000D03*
%TO.P,J1,4,Pin_4*%
%TO.N,GND*%
X126365000Y-92710000D03*
%TD*%
D10*
%TO.P,J2,1,Pin_1*%
%TO.N,SDA*%
X141605000Y-92710000D03*
D11*
%TO.P,J2,2,Pin_2*%
%TO.N,SCL*%
X139065000Y-92710000D03*
%TO.P,J2,3,Pin_3*%
%TO.N,Net-(J2-Pin_3)*%
X136525000Y-92710000D03*
%TO.P,J2,4,Pin_4*%
%TO.N,+3V3*%
X133985000Y-92710000D03*
%TO.P,J2,5,Pin_5*%
%TO.N,GND*%
X131445000Y-92710000D03*
%TD*%
D12*
%TO.P,U1,1,SDA*%
%TO.N,SDA*%
X138300000Y-88450000D03*
%TO.P,U1,2,INT*%
%TO.N,Net-(J2-Pin_3)*%
X138300000Y-87480000D03*
%TO.P,U1,3,LDR*%
%TO.N,Net-(U1-LDR)*%
X138300000Y-86510000D03*
%TO.P,U1,4,LED_K*%
X138300000Y-85540000D03*
%TO.P,U1,5,LED_A*%
%TO.N,+3V3*%
X139700000Y-85540000D03*
%TO.P,U1,6,GND*%
%TO.N,GND*%
X139700000Y-86510000D03*
%TO.P,U1,7,SCL*%
%TO.N,SCL*%
X139700000Y-87480000D03*
%TO.P,U1,8,VCC*%
%TO.N,Net-(U1-VCC)*%
X139700000Y-88450000D03*
%TD*%
D13*
%TO.P,R4,1*%
%TO.N,+3V3*%
X132715000Y-86360000D03*
%TO.P,R4,2*%
%TO.N,SCL*%
X132715000Y-84710000D03*
%TD*%
%TO.P,R3,1*%
%TO.N,+3V3*%
X130175000Y-86360000D03*
%TO.P,R3,2*%
%TO.N,SDA*%
X130175000Y-84710000D03*
%TD*%
%TO.P,R2,1*%
%TO.N,+3V3*%
X135255000Y-86360000D03*
%TO.P,R2,2*%
%TO.N,Net-(J2-Pin_3)*%
X135255000Y-84710000D03*
%TD*%
D14*
%TO.P,R1,1*%
%TO.N,+3V3*%
X142240000Y-84455000D03*
%TO.P,R1,2*%
%TO.N,Net-(U1-VCC)*%
X142240000Y-86105000D03*
%TD*%
D15*
%TO.P,C3,1*%
%TO.N,+3V3*%
X134996000Y-88900000D03*
%TO.P,C3,2*%
%TO.N,GND*%
X133096000Y-88900000D03*
%TD*%
D16*
%TO.P,C2,1*%
%TO.N,GND*%
X142240000Y-87630000D03*
%TO.P,C2,2*%
%TO.N,Net-(U1-VCC)*%
X142240000Y-89180000D03*
%TD*%
D17*
%TO.P,C1,1*%
%TO.N,+3V3*%
X131445000Y-88900000D03*
%TO.P,C1,2*%
%TO.N,GND*%
X129895000Y-88900000D03*
%TD*%
D18*
%TO.N,Net-(U1-VCC)*%
X143383000Y-86106000D03*
X141204832Y-89287832D03*
%TO.N,+3V3*%
X143764000Y-84582000D03*
X133858000Y-85598000D03*
%TO.N,GND*%
X133096000Y-87630000D03*
%TO.N,SCL*%
X140640500Y-87617431D03*
%TO.N,GND*%
X128778000Y-88900000D03*
%TO.N,SCL*%
X131572000Y-84873500D03*
%TO.N,SDA*%
X136906000Y-88392000D03*
X128778000Y-84582000D03*
%TD*%
D19*
%TO.N,GND*%
X140866000Y-86510000D02*
X139700000Y-86510000D01*
X141986000Y-87630000D02*
X140866000Y-86510000D01*
X142240000Y-87630000D02*
X141986000Y-87630000D01*
%TO.N,Net-(U1-VCC)*%
X142241000Y-86106000D02*
X142240000Y-86105000D01*
X143383000Y-86106000D02*
X142241000Y-86106000D01*
X141312664Y-89180000D02*
X141204832Y-89287832D01*
X142240000Y-89180000D02*
X141312664Y-89180000D01*
X140430000Y-89180000D02*
X139700000Y-88450000D01*
X142240000Y-89180000D02*
X140430000Y-89180000D01*
%TO.N,+3V3*%
X142367000Y-84582000D02*
X142240000Y-84455000D01*
X143764000Y-84582000D02*
X142367000Y-84582000D01*
X134112000Y-86360000D02*
X134112000Y-85852000D01*
X134112000Y-85852000D02*
X133858000Y-85598000D01*
X134112000Y-86360000D02*
X135255000Y-86360000D01*
X132715000Y-86360000D02*
X134112000Y-86360000D01*
X134996000Y-86619000D02*
X135255000Y-86360000D01*
X134996000Y-88900000D02*
X134996000Y-86619000D01*
%TO.N,GND*%
X126365000Y-92710000D02*
X131445000Y-92710000D01*
%TO.N,SDA*%
X128524000Y-84836000D02*
X128778000Y-84582000D01*
X128524000Y-86868000D02*
X128524000Y-84836000D01*
X127762000Y-87630000D02*
X128524000Y-86868000D01*
X126365000Y-87630000D02*
X127762000Y-87630000D01*
%TO.N,+3V3*%
X130810000Y-90170000D02*
X131445000Y-89535000D01*
X126365000Y-90170000D02*
X130810000Y-90170000D01*
X131445000Y-89535000D02*
X131445000Y-88900000D01*
%TO.N,GND*%
X133096000Y-88900000D02*
X133096000Y-87630000D01*
%TO.N,+3V3*%
X134996000Y-89794000D02*
X133985000Y-90805000D01*
X134996000Y-88900000D02*
X134996000Y-89794000D01*
%TO.N,Net-(J2-Pin_3)*%
X135896000Y-87890000D02*
X135890000Y-87884000D01*
X135896000Y-88652000D02*
X135896000Y-87890000D01*
X136525000Y-89281000D02*
X135896000Y-88652000D01*
X135890000Y-87884000D02*
X136652000Y-87122000D01*
X136525000Y-92710000D02*
X136525000Y-89281000D01*
%TO.N,SDA*%
X139768000Y-90678000D02*
X140716000Y-90678000D01*
X140716000Y-90678000D02*
X141605000Y-91567000D01*
X138300000Y-89210000D02*
X139768000Y-90678000D01*
X138300000Y-88450000D02*
X138300000Y-89210000D01*
X141605000Y-91567000D02*
X141605000Y-92710000D01*
%TO.N,SCL*%
X140503069Y-87480000D02*
X140640500Y-87617431D01*
X139700000Y-87480000D02*
X140503069Y-87480000D01*
%TO.N,GND*%
X129895000Y-88900000D02*
X128778000Y-88900000D01*
%TO.N,SCL*%
X131735500Y-84710000D02*
X131572000Y-84873500D01*
X132715000Y-84710000D02*
X131735500Y-84710000D01*
%TO.N,SDA*%
X130047000Y-84582000D02*
X130175000Y-84710000D01*
X128778000Y-84582000D02*
X130047000Y-84582000D01*
X136964000Y-88450000D02*
X136906000Y-88392000D01*
X138300000Y-88450000D02*
X136964000Y-88450000D01*
%TO.N,Net-(J2-Pin_3)*%
X136652000Y-87122000D02*
X137010000Y-87480000D01*
X136272000Y-84710000D02*
X136652000Y-85090000D01*
X136652000Y-85090000D02*
X136652000Y-87122000D01*
X135255000Y-84710000D02*
X136272000Y-84710000D01*
X137010000Y-87480000D02*
X138300000Y-87480000D01*
%TO.N,Net-(U1-LDR)*%
X138300000Y-86510000D02*
X138300000Y-85540000D01*
%TO.N,+3V3*%
X139700000Y-85090000D02*
X140335000Y-84455000D01*
X139700000Y-85540000D02*
X139700000Y-85090000D01*
X140335000Y-84455000D02*
X142240000Y-84455000D01*
X131445000Y-88900000D02*
X131445000Y-86360000D01*
X131445000Y-86360000D02*
X132715000Y-86360000D01*
X130175000Y-86360000D02*
X131445000Y-86360000D01*
X133985000Y-90805000D02*
X133985000Y-92710000D01*
%TD*%
%TA.AperFunction,Conductor*%
%TO.N,GND*%
G36*
X128510480Y-83505185D02*
G01*
X128556235Y-83557989D01*
X128566179Y-83627147D01*
X128537154Y-83690703D01*
X128493877Y-83722779D01*
X128325270Y-83797848D01*
X128325265Y-83797851D01*
X128172129Y-83909111D01*
X128045466Y-84049785D01*
X127950820Y-84213717D01*
X127950472Y-84214500D01*
X127950149Y-84214878D01*
X127947572Y-84219344D01*
X127946755Y-84218872D01*
X127905217Y-84267734D01*
X127838367Y-84288050D01*
X127771144Y-84269000D01*
X127724893Y-84216630D01*
X127713906Y-84177309D01*
X127709091Y-84132516D01*
X127658797Y-83997671D01*
X127658793Y-83997664D01*
X127572547Y-83882455D01*
X127572544Y-83882452D01*
X127457335Y-83796206D01*
X127457328Y-83796202D01*
X127322482Y-83745908D01*
X127322483Y-83745908D01*
X127262883Y-83739501D01*
X127262881Y-83739500D01*
X127262873Y-83739500D01*
X127262864Y-83739500D01*
X125467129Y-83739500D01*
X125467123Y-83739501D01*
X125407516Y-83745908D01*
X125272671Y-83796202D01*
X125272664Y-83796206D01*
X125157455Y-83882452D01*
X125157452Y-83882455D01*
X125071206Y-83997664D01*
X125071202Y-83997671D01*
X125020908Y-84132517D01*
X125014501Y-84192116D01*
X125014500Y-84192135D01*
X125014500Y-85987870D01*
X125014501Y-85987876D01*
X125020908Y-86047483D01*
X125071202Y-86182328D01*
X125071206Y-86182335D01*
X125157452Y-86297544D01*
X125157455Y-86297547D01*
X125272664Y-86383793D01*
X125272671Y-86383797D01*
X125404081Y-86432810D01*
X125460015Y-86474681D01*
X125484432Y-86540145D01*
X125469580Y-86608418D01*
X125448430Y-86636673D01*
X125326503Y-86758600D01*
X125190965Y-86952169D01*
X125190964Y-86952171D01*
X125091098Y-87166335D01*
X125091094Y-87166344D01*
X125029938Y-87394586D01*
X125029936Y-87394596D01*
X125009341Y-87629999D01*
X125009341Y-87630000D01*
X125029936Y-87865403D01*
X125029938Y-87865413D01*
X125091094Y-88093655D01*
X125091096Y-88093659D01*
X125091097Y-88093663D01*
X125184048Y-88292997D01*
X125190965Y-88307830D01*
X125190967Y-88307834D01*
X125326501Y-88501395D01*
X125326506Y-88501402D01*
X125493597Y-88668493D01*
X125493603Y-88668498D01*
X125679158Y-88798425D01*
X125722783Y-88853002D01*
X125729977Y-88922500D01*
X125698454Y-88984855D01*
X125679158Y-89001575D01*
X125493597Y-89131505D01*
X125326505Y-89298597D01*
X125190965Y-89492169D01*
X125190964Y-89492171D01*
X125091098Y-89706335D01*
X125091094Y-89706344D01*
X125029938Y-89934586D01*
X125029936Y-89934596D01*
X125009341Y-90169999D01*
X125009341Y-90170000D01*
X125029936Y-90405403D01*
X125029938Y-90405413D01*
X125091094Y-90633655D01*
X125091096Y-90633659D01*
X125091097Y-90633663D01*
X125151126Y-90762395D01*
X125190965Y-90847830D01*
X125190967Y-90847834D01*
X125326501Y-91041395D01*
X125326506Y-91041402D01*
X125493597Y-91208493D01*
X125493603Y-91208498D01*
X125542136Y-91242481D01*
X125676747Y-91336737D01*
X125679594Y-91338730D01*
X125723219Y-91393307D01*
X125730413Y-91462805D01*
X125698890Y-91525160D01*
X125679595Y-91541880D01*
X125493922Y-91671890D01*
X125493920Y-91671891D01*
X125326891Y-91838920D01*
X125326886Y-91838926D01*
X125191400Y-92032420D01*
X125191399Y-92032422D01*
X125091570Y-92246507D01*
X125091567Y-92246513D01*
X125034364Y-92459999D01*
X125034364Y-92460000D01*
X125751653Y-92460000D01*
X125818692Y-92479685D01*
X125864447Y-92532489D01*
X125874391Y-92601647D01*
X125870631Y-92618933D01*
X125865000Y-92638111D01*
X125865000Y-92781888D01*
X125870631Y-92801067D01*
X125870630Y-92870936D01*
X125832855Y-92929714D01*
X125769299Y-92958738D01*
X125751653Y-92960000D01*
X125034364Y-92960000D01*
X125091567Y-93173486D01*
X125091570Y-93173492D01*
X125191399Y-93387578D01*
X125326894Y-93581082D01*
X125493917Y-93748105D01*
X125687421Y-93883600D01*
X125901507Y-93983429D01*
X125901516Y-93983433D01*
X126114998Y-94040635D01*
X126114999Y-94040634D01*
X126114999Y-93322301D01*
X126134684Y-93255262D01*
X126187488Y-93209507D01*
X126256646Y-93199563D01*
X126263380Y-93200531D01*
X126329237Y-93210000D01*
X126329238Y-93210000D01*
X126400762Y-93210000D01*
X126400763Y-93210000D01*
X126473353Y-93199563D01*
X126542512Y-93209507D01*
X126595315Y-93255262D01*
X126615000Y-93322301D01*
X126615000Y-94040633D01*
X126828483Y-93983433D01*
X126828492Y-93983429D01*
X127042578Y-93883600D01*
X127236082Y-93748105D01*
X127403105Y-93581082D01*
X127538600Y-93387578D01*
X127638429Y-93173492D01*
X127638432Y-93173486D01*
X127695636Y-92960000D01*
X126978347Y-92960000D01*
X126911308Y-92940315D01*
X126865553Y-92887511D01*
X126855609Y-92818353D01*
X126859369Y-92801067D01*
X126865000Y-92781888D01*
X126865000Y-92638111D01*
X126859369Y-92618933D01*
X126859370Y-92549064D01*
X126897145Y-92490286D01*
X126960701Y-92461262D01*
X126978347Y-92460000D01*
X127695636Y-92460000D01*
X127695635Y-92459999D01*
X127638432Y-92246513D01*
X127638429Y-92246507D01*
X127538600Y-92032422D01*
X127538599Y-92032420D01*
X127403113Y-91838926D01*
X127403108Y-91838920D01*
X127236078Y-91671890D01*
X127050405Y-91541879D01*
X127006780Y-91487302D01*
X126999588Y-91417804D01*
X127031110Y-91355449D01*
X127050406Y-91338730D01*
X127051944Y-91337653D01*
X127236401Y-91208495D01*
X127403495Y-91041401D01*
X127486136Y-90923376D01*
X127540713Y-90879752D01*
X127587711Y-90870500D01*
X130786952Y-90870500D01*
X130790697Y-90870613D01*
X130798042Y-90871057D01*
X130852606Y-90874358D01*
X130890314Y-90867447D01*
X130913621Y-90863177D01*
X130917325Y-90862613D01*
X130935170Y-90860446D01*
X130978872Y-90855140D01*
X130988335Y-90851550D01*
X131009961Y-90845522D01*
X131010893Y-90845351D01*
X131019932Y-90843695D01*
X131076512Y-90818229D01*
X131079942Y-90816809D01*
X131137930Y-90794818D01*
X131146266Y-90789062D01*
X131165821Y-90778034D01*
X131175057Y-90773878D01*
X131223896Y-90735613D01*
X131226876Y-90733421D01*
X131277929Y-90698183D01*
X131319065Y-90651748D01*
X131321599Y-90649056D01*
X131924048Y-90046606D01*
X131926740Y-90044072D01*
X131973183Y-90002929D01*
X132008427Y-89951867D01*
X132010634Y-89948869D01*
X132048878Y-89900056D01*
X132053037Y-89890813D01*
X132064052Y-89871281D01*
X132068378Y-89865014D01*
X132122655Y-89821025D01*
X132192103Y-89813361D01*
X132254670Y-89844460D01*
X132258110Y-89847771D01*
X132377654Y-89967315D01*
X132526875Y-90059356D01*
X132526880Y-90059358D01*
X132693302Y-90114505D01*
X132693309Y-90114506D01*
X132796019Y-90124999D01*
X132845999Y-90124998D01*
X132846000Y-90124998D01*
X132845999Y-87675000D01*
X132845999Y-87674999D01*
X132796029Y-87675000D01*
X132796011Y-87675001D01*
X132693302Y-87685494D01*
X132526880Y-87740641D01*
X132526875Y-87740643D01*
X132377656Y-87832683D01*
X132357180Y-87853159D01*
X132295856Y-87886643D01*
X132226164Y-87881657D01*
X132170231Y-87839784D01*
X132145816Y-87774320D01*
X132145500Y-87765476D01*
X132145500Y-87370472D01*
X132165185Y-87303433D01*
X132217989Y-87257678D01*
X132287147Y-87247734D01*
X132306386Y-87252086D01*
X132312804Y-87254086D01*
X132383384Y-87260500D01*
X132383387Y-87260500D01*
X133046613Y-87260500D01*
X133046616Y-87260500D01*
X133117196Y-87254086D01*
X133279606Y-87203478D01*
X133425185Y-87115472D01*
X133425189Y-87115467D01*
X133443839Y-87096819D01*
X133505162Y-87063334D01*
X133531520Y-87060500D01*
X134026944Y-87060500D01*
X134069628Y-87060500D01*
X134171500Y-87060500D01*
X134238539Y-87080185D01*
X134284294Y-87132989D01*
X134295500Y-87184500D01*
X134295500Y-87762769D01*
X134275815Y-87829808D01*
X134259182Y-87850450D01*
X134153283Y-87956349D01*
X134151241Y-87959661D01*
X134149247Y-87961453D01*
X134148807Y-87962011D01*
X134148711Y-87961935D01*
X134099291Y-88006383D01*
X134030328Y-88017602D01*
X133966247Y-87989755D01*
X133940168Y-87959656D01*
X133938319Y-87956659D01*
X133938316Y-87956655D01*
X133814345Y-87832684D01*
X133665124Y-87740643D01*
X133665119Y-87740641D01*
X133498697Y-87685494D01*
X133498690Y-87685493D01*
X133395986Y-87675000D01*
X133346000Y-87675000D01*
X133346000Y-90124999D01*
X133369236Y-90124999D01*
X133436275Y-90144684D01*
X133482030Y-90197488D01*
X133491974Y-90266646D01*
X133462949Y-90330202D01*
X133461746Y-90331416D01*
X133461791Y-90331456D01*
X133456819Y-90337068D01*
X133421586Y-90388109D01*
X133419368Y-90391124D01*
X133381124Y-90439939D01*
X133381119Y-90439948D01*
X133376960Y-90449188D01*
X133365942Y-90468723D01*
X133360187Y-90477061D01*
X133360183Y-90477067D01*
X133360182Y-90477070D01*
X133360180Y-90477074D01*
X133360179Y-90477077D01*
X133338189Y-90535055D01*
X133336757Y-90538513D01*
X133311305Y-90595068D01*
X133309477Y-90605042D01*
X133303453Y-90626653D01*
X133299860Y-90636127D01*
X133299859Y-90636128D01*
X133292384Y-90697685D01*
X133291821Y-90701386D01*
X133280642Y-90762390D01*
X133280642Y-90762395D01*
X133284387Y-90824302D01*
X133284500Y-90828047D01*
X133284500Y-91487288D01*
X133264815Y-91554327D01*
X133231624Y-91588863D01*
X133113594Y-91671508D01*
X132946508Y-91838594D01*
X132816269Y-92024595D01*
X132761692Y-92068219D01*
X132692193Y-92075412D01*
X132629839Y-92043890D01*
X132613119Y-92024594D01*
X132483113Y-91838926D01*
X132483108Y-91838920D01*
X132316082Y-91671894D01*
X132122578Y-91536399D01*
X131908492Y-91436570D01*
X131908486Y-91436567D01*
X131695000Y-91379364D01*
X131694999Y-91379364D01*
X131695000Y-92097698D01*
X131675315Y-92164737D01*
X131622511Y-92210492D01*
X131553355Y-92220436D01*
X131480766Y-92210000D01*
X131480763Y-92210000D01*
X131409237Y-92210000D01*
X131409233Y-92210000D01*
X131336644Y-92220436D01*
X131267486Y-92210492D01*
X131214683Y-92164736D01*
X131194999Y-92097698D01*
X131194998Y-91379364D01*
X130981505Y-91436570D01*
X130767422Y-91536399D01*
X130767420Y-91536400D01*
X130573926Y-91671886D01*
X130573920Y-91671891D01*
X130406891Y-91838920D01*
X130406886Y-91838926D01*
X130271400Y-92032420D01*
X130271399Y-92032422D01*
X130171570Y-92246507D01*
X130171567Y-92246513D01*
X130114364Y-92459999D01*
X130114364Y-92460000D01*
X130831653Y-92460000D01*
X130898692Y-92479685D01*
X130944447Y-92532489D01*
X130954391Y-92601647D01*
X130950631Y-92618933D01*
X130945000Y-92638111D01*
X130945000Y-92781888D01*
X130950631Y-92801067D01*
X130950630Y-92870936D01*
X130912855Y-92929714D01*
X130849299Y-92958738D01*
X130831653Y-92960000D01*
X130114364Y-92960000D01*
X130171567Y-93173486D01*
X130171570Y-93173492D01*
X130271399Y-93387578D01*
X130406894Y-93581082D01*
X130573917Y-93748105D01*
X130767421Y-93883600D01*
X130981507Y-93983429D01*
X130981516Y-93983433D01*
X131194998Y-94040635D01*
X131194998Y-94040634D01*
X131194999Y-93322301D01*
X131214684Y-93255262D01*
X131267488Y-93209507D01*
X131336646Y-93199563D01*
X131343380Y-93200531D01*
X131409237Y-93210000D01*
X131409238Y-93210000D01*
X131480762Y-93210000D01*
X131480763Y-93210000D01*
X131553353Y-93199563D01*
X131622512Y-93209507D01*
X131675315Y-93255262D01*
X131695000Y-93322301D01*
X131695000Y-94040634D01*
X131908483Y-93983433D01*
X131908492Y-93983429D01*
X132122578Y-93883600D01*
X132316082Y-93748105D01*
X132483105Y-93581082D01*
X132613119Y-93395405D01*
X132667696Y-93351781D01*
X132737195Y-93344588D01*
X132799549Y-93376110D01*
X132816269Y-93395405D01*
X132946505Y-93581401D01*
X133113599Y-93748495D01*
X133210384Y-93816265D01*
X133307165Y-93884032D01*
X133307167Y-93884033D01*
X133307170Y-93884035D01*
X133521337Y-93983903D01*
X133749592Y-94045063D01*
X133926034Y-94060500D01*
X133984999Y-94065659D01*
X133985000Y-94065659D01*
X133985001Y-94065659D01*
X134043966Y-94060500D01*
X134220408Y-94045063D01*
X134448663Y-93983903D01*
X134662830Y-93884035D01*
X134856401Y-93748495D01*
X135023495Y-93581401D01*
X135153424Y-93395842D01*
X135208002Y-93352217D01*
X135277500Y-93345023D01*
X135339855Y-93376546D01*
X135356575Y-93395842D01*
X135486281Y-93581082D01*
X135486505Y-93581401D01*
X135653599Y-93748495D01*
X135750384Y-93816265D01*
X135847165Y-93884032D01*
X135847167Y-93884033D01*
X135847170Y-93884035D01*
X136061337Y-93983903D01*
X136289592Y-94045063D01*
X136466034Y-94060500D01*
X136524999Y-94065659D01*
X136525000Y-94065659D01*
X136525001Y-94065659D01*
X136583966Y-94060500D01*
X136760408Y-94045063D01*
X136988663Y-93983903D01*
X137202830Y-93884035D01*
X137396401Y-93748495D01*
X137563495Y-93581401D01*
X137693424Y-93395842D01*
X137748002Y-93352217D01*
X137817500Y-93345023D01*
X137879855Y-93376546D01*
X137896575Y-93395842D01*
X138026281Y-93581082D01*
X138026505Y-93581401D01*
X138193599Y-93748495D01*
X138290384Y-93816265D01*
X138387165Y-93884032D01*
X138387167Y-93884033D01*
X138387170Y-93884035D01*
X138601337Y-93983903D01*
X138829592Y-94045063D01*
X139006034Y-94060500D01*
X139064999Y-94065659D01*
X139065000Y-94065659D01*
X139065001Y-94065659D01*
X139123966Y-94060500D01*
X139300408Y-94045063D01*
X139528663Y-93983903D01*
X139742830Y-93884035D01*
X139936401Y-93748495D01*
X140058329Y-93626566D01*
X140119648Y-93593084D01*
X140189340Y-93598068D01*
X140245274Y-93639939D01*
X140262189Y-93670917D01*
X140311202Y-93802328D01*
X140311206Y-93802335D01*
X140397452Y-93917544D01*
X140397455Y-93917547D01*
X140512664Y-94003793D01*
X140512671Y-94003797D01*
X140647517Y-94054091D01*
X140647516Y-94054091D01*
X140654444Y-94054835D01*
X140707127Y-94060500D01*
X142502872Y-94060499D01*
X142562483Y-94054091D01*
X142697331Y-94003796D01*
X142812546Y-93917546D01*
X142898796Y-93802331D01*
X142949091Y-93667483D01*
X142955500Y-93607873D01*
X142955499Y-91812128D01*
X142949091Y-91752517D01*
X142947810Y-91749083D01*
X142898797Y-91617671D01*
X142898793Y-91617664D01*
X142812547Y-91502455D01*
X142812544Y-91502452D01*
X142697335Y-91416206D01*
X142697328Y-91416202D01*
X142562482Y-91365908D01*
X142562483Y-91365908D01*
X142502883Y-91359501D01*
X142502881Y-91359500D01*
X142502873Y-91359500D01*
X142502865Y-91359500D01*
X142361081Y-91359500D01*
X142294042Y-91339815D01*
X142248287Y-91287011D01*
X142245146Y-91279490D01*
X142229818Y-91239070D01*
X142224063Y-91230733D01*
X142213036Y-91211182D01*
X142208879Y-91201946D01*
X142208878Y-91201943D01*
X142174731Y-91158357D01*
X142170630Y-91153122D01*
X142168410Y-91150106D01*
X142133183Y-91099071D01*
X142086750Y-91057935D01*
X142084056Y-91055399D01*
X141392937Y-90364279D01*
X141359452Y-90302957D01*
X141364436Y-90233265D01*
X141406308Y-90177332D01*
X141454835Y-90155310D01*
X141484635Y-90148976D01*
X141630241Y-90084146D01*
X141699491Y-90074862D01*
X141719679Y-90079719D01*
X141842292Y-90120349D01*
X141941655Y-90130500D01*
X142538344Y-90130499D01*
X142538352Y-90130498D01*
X142538355Y-90130498D01*
X142592760Y-90124940D01*
X142637708Y-90120349D01*
X142798697Y-90067003D01*
X142943044Y-89977968D01*
X143062968Y-89858044D01*
X143152003Y-89713697D01*
X143205349Y-89552708D01*
X143215500Y-89453345D01*
X143215499Y-88906656D01*
X143209602Y-88848931D01*
X143205349Y-88807292D01*
X143205348Y-88807289D01*
X143174357Y-88713765D01*
X143174356Y-88713763D01*
X145211787Y-88713763D01*
X145241413Y-88983013D01*
X145241415Y-88983024D01*
X145308178Y-89238394D01*
X145309928Y-89245088D01*
X145415870Y-89494390D01*
X145552977Y-89719047D01*
X145556979Y-89725605D01*
X145556986Y-89725615D01*
X145730253Y-89933819D01*
X145730259Y-89933824D01*
X145884455Y-90071983D01*
X145931998Y-90114582D01*
X146157910Y-90264044D01*
X146403176Y-90379020D01*
X146403183Y-90379022D01*
X146403185Y-90379023D01*
X146662557Y-90457057D01*
X146662564Y-90457058D01*
X146662569Y-90457060D01*
X146930561Y-90496500D01*
X146930566Y-90496500D01*
X147133636Y-90496500D01*
X147185133Y-90492730D01*
X147336156Y-90481677D01*
X147482004Y-90449188D01*
X147600546Y-90422782D01*
X147600548Y-90422781D01*
X147600553Y-90422780D01*
X147853558Y-90326014D01*
X148089777Y-90193441D01*
X148304177Y-90027888D01*
X148492186Y-89832881D01*
X148649799Y-89612579D01*
X148733482Y-89449815D01*
X148773649Y-89371690D01*
X148773651Y-89371684D01*
X148773656Y-89371675D01*
X148861118Y-89115305D01*
X148910319Y-88848933D01*
X148920212Y-88578235D01*
X148890586Y-88308982D01*
X148822072Y-88046912D01*
X148716130Y-87797610D01*
X148575018Y-87566390D01*
X148485747Y-87459119D01*
X148401746Y-87358180D01*
X148401740Y-87358175D01*
X148200002Y-87177418D01*
X147974092Y-87027957D01*
X147936467Y-87010319D01*
X147728824Y-86912980D01*
X147728819Y-86912978D01*
X147728814Y-86912976D01*
X147469442Y-86834942D01*
X147469428Y-86834939D01*
X147353791Y-86817921D01*
X147201439Y-86795500D01*
X146998369Y-86795500D01*
X146998364Y-86795500D01*
X146795844Y-86810323D01*
X146795831Y-86810325D01*
X146531453Y-86869217D01*
X146531446Y-86869220D01*
X146278439Y-86965987D01*
X146042226Y-87098557D01*
X146042224Y-87098558D01*
X146042223Y-87098559D01*
X146020325Y-87115468D01*
X145827822Y-87264112D01*
X145639822Y-87459109D01*
X145639816Y-87459116D01*
X145482202Y-87679419D01*
X145482199Y-87679424D01*
X145358350Y-87920309D01*
X145358343Y-87920327D01*
X145270884Y-88176685D01*
X145270881Y-88176699D01*
X145221681Y-88443068D01*
X145221680Y-88443075D01*
X145211787Y-88713763D01*
X143174356Y-88713763D01*
X143152003Y-88646303D01*
X143151999Y-88646297D01*
X143151998Y-88646294D01*
X143062970Y-88501959D01*
X143062967Y-88501955D01*
X143053339Y-88492327D01*
X143019854Y-88431004D01*
X143024838Y-88361312D01*
X143053345Y-88316959D01*
X143062573Y-88307731D01*
X143151542Y-88163492D01*
X143151547Y-88163481D01*
X143204855Y-88002606D01*
X143214999Y-87903322D01*
X143215000Y-87903309D01*
X143215000Y-87880000D01*
X142114000Y-87880000D01*
X142046961Y-87860315D01*
X142001206Y-87807511D01*
X141990000Y-87756000D01*
X141990000Y-87504000D01*
X142009685Y-87436961D01*
X142062489Y-87391206D01*
X142114000Y-87380000D01*
X143214999Y-87380000D01*
X143214999Y-87356692D01*
X143214998Y-87356677D01*
X143204855Y-87257392D01*
X143175732Y-87169504D01*
X143173330Y-87099676D01*
X143209062Y-87039634D01*
X143271582Y-87008441D01*
X143293438Y-87006500D01*
X143477644Y-87006500D01*
X143477646Y-87006500D01*
X143662803Y-86967144D01*
X143835730Y-86890151D01*
X143988871Y-86778888D01*
X144115533Y-86638216D01*
X144210179Y-86474284D01*
X144268674Y-86294256D01*
X144288460Y-86106000D01*
X144268674Y-85917744D01*
X144210179Y-85737716D01*
X144154539Y-85641345D01*
X144112284Y-85568156D01*
X144113635Y-85567375D01*
X144092810Y-85509036D01*
X144108626Y-85440980D01*
X144158725Y-85392278D01*
X144166143Y-85388673D01*
X144216730Y-85366151D01*
X144369871Y-85254888D01*
X144496533Y-85114216D01*
X144591179Y-84950284D01*
X144649674Y-84770256D01*
X144669460Y-84582000D01*
X144649674Y-84393744D01*
X144591179Y-84213716D01*
X144496533Y-84049784D01*
X144369871Y-83909112D01*
X144345739Y-83891579D01*
X144216734Y-83797851D01*
X144216729Y-83797848D01*
X144048123Y-83722779D01*
X143994886Y-83677529D01*
X143974565Y-83610680D01*
X143993611Y-83543456D01*
X144045977Y-83497201D01*
X144098559Y-83485500D01*
X147082405Y-83485500D01*
X147128471Y-83485500D01*
X147131513Y-83485575D01*
X147489571Y-83503165D01*
X147495624Y-83503760D01*
X147848724Y-83556138D01*
X147854676Y-83557321D01*
X148133437Y-83627147D01*
X148200953Y-83644059D01*
X148206774Y-83645824D01*
X148542867Y-83766081D01*
X148548486Y-83768409D01*
X148871181Y-83921031D01*
X148876539Y-83923894D01*
X149182713Y-84107408D01*
X149187775Y-84110790D01*
X149474494Y-84323436D01*
X149479198Y-84327296D01*
X149743699Y-84567025D01*
X149747974Y-84571300D01*
X149953437Y-84797994D01*
X149987701Y-84835799D01*
X149991563Y-84840505D01*
X150204209Y-85127224D01*
X150207591Y-85132286D01*
X150363424Y-85392278D01*
X150391098Y-85438448D01*
X150393968Y-85443818D01*
X150546590Y-85766513D01*
X150548920Y-85772137D01*
X150669173Y-86108220D01*
X150670940Y-86114046D01*
X150757674Y-86460304D01*
X150758861Y-86466275D01*
X150811238Y-86819370D01*
X150811834Y-86825428D01*
X150829425Y-87183486D01*
X150829500Y-87186529D01*
X150829500Y-90613470D01*
X150829425Y-90616513D01*
X150811834Y-90974571D01*
X150811238Y-90980629D01*
X150758861Y-91333724D01*
X150757674Y-91339695D01*
X150670940Y-91685953D01*
X150669173Y-91691779D01*
X150548920Y-92027862D01*
X150546590Y-92033486D01*
X150393968Y-92356181D01*
X150391098Y-92361551D01*
X150207591Y-92667713D01*
X150204209Y-92672775D01*
X149991563Y-92959494D01*
X149987701Y-92964200D01*
X149911782Y-93047965D01*
X149765370Y-93209507D01*
X149747989Y-93228684D01*
X149743689Y-93232983D01*
X149719109Y-93255262D01*
X149479200Y-93472701D01*
X149474494Y-93476563D01*
X149187775Y-93689209D01*
X149182713Y-93692591D01*
X148876551Y-93876098D01*
X148871181Y-93878968D01*
X148548486Y-94031590D01*
X148542862Y-94033920D01*
X148206779Y-94154173D01*
X148200953Y-94155940D01*
X147854695Y-94242674D01*
X147848724Y-94243861D01*
X147495629Y-94296238D01*
X147489571Y-94296834D01*
X147131514Y-94314425D01*
X147128471Y-94314500D01*
X124884500Y-94314500D01*
X124817461Y-94294815D01*
X124771706Y-94242011D01*
X124760500Y-94190500D01*
X124760500Y-83609500D01*
X124780185Y-83542461D01*
X124832989Y-83496706D01*
X124884500Y-83485500D01*
X128443441Y-83485500D01*
X128510480Y-83505185D01*
G37*
%TD.AperFunction*%
%TA.AperFunction,Conductor*%
G36*
X129374764Y-87029636D02*
G01*
X129395978Y-87046636D01*
X129464811Y-87115469D01*
X129464813Y-87115470D01*
X129464815Y-87115472D01*
X129610394Y-87203478D01*
X129772804Y-87254086D01*
X129843384Y-87260500D01*
X129843387Y-87260500D01*
X130506613Y-87260500D01*
X130506616Y-87260500D01*
X130577196Y-87254086D01*
X130583608Y-87252087D01*
X130653463Y-87250934D01*
X130712857Y-87287732D01*
X130742928Y-87350799D01*
X130744499Y-87370472D01*
X130744499Y-87961199D01*
X130724814Y-88028238D01*
X130672010Y-88073993D01*
X130602852Y-88083937D01*
X130555402Y-88066737D01*
X130428492Y-87988457D01*
X130428481Y-87988452D01*
X130267606Y-87935144D01*
X130168322Y-87925000D01*
X130144999Y-87925000D01*
X130145000Y-89026000D01*
X130125315Y-89093039D01*
X130072512Y-89138794D01*
X130021000Y-89150000D01*
X128945001Y-89150000D01*
X128945001Y-89198322D01*
X128955144Y-89297606D01*
X128958089Y-89306493D01*
X128960492Y-89376321D01*
X128924762Y-89436364D01*
X128862243Y-89467558D01*
X128840384Y-89469500D01*
X127587711Y-89469500D01*
X127520672Y-89449815D01*
X127486136Y-89416623D01*
X127403494Y-89298597D01*
X127236402Y-89131506D01*
X127236396Y-89131501D01*
X127050842Y-89001575D01*
X127007217Y-88946998D01*
X127000023Y-88877500D01*
X127031546Y-88815145D01*
X127050842Y-88798425D01*
X127073026Y-88782891D01*
X127236401Y-88668495D01*
X127254896Y-88650000D01*
X128945000Y-88650000D01*
X129645000Y-88650000D01*
X129645000Y-87924999D01*
X129621693Y-87925000D01*
X129621674Y-87925001D01*
X129522392Y-87935144D01*
X129361518Y-87988452D01*
X129361507Y-87988457D01*
X129217271Y-88077424D01*
X129217267Y-88077427D01*
X129097427Y-88197267D01*
X129097424Y-88197271D01*
X129008457Y-88341507D01*
X129008452Y-88341518D01*
X128955144Y-88502393D01*
X128945000Y-88601677D01*
X128945000Y-88650000D01*
X127254896Y-88650000D01*
X127403495Y-88501401D01*
X127486136Y-88383376D01*
X127540713Y-88339752D01*
X127587711Y-88330500D01*
X127738952Y-88330500D01*
X127742697Y-88330613D01*
X127750042Y-88331057D01*
X127804606Y-88334358D01*
X127842314Y-88327447D01*
X127865621Y-88323177D01*
X127869325Y-88322613D01*
X127887170Y-88320446D01*
X127930872Y-88315140D01*
X127940335Y-88311550D01*
X127961961Y-88305522D01*
X127962893Y-88305351D01*
X127971932Y-88303695D01*
X128028512Y-88278229D01*
X128031942Y-88276809D01*
X128089930Y-88254818D01*
X128098266Y-88249062D01*
X128117821Y-88238034D01*
X128127057Y-88233878D01*
X128175896Y-88195613D01*
X128178876Y-88193421D01*
X128229929Y-88158183D01*
X128271065Y-88111748D01*
X128273599Y-88109056D01*
X129003056Y-87379599D01*
X129005748Y-87377065D01*
X129052183Y-87335929D01*
X129087417Y-87284883D01*
X129089620Y-87281887D01*
X129127878Y-87233056D01*
X129132037Y-87223813D01*
X129143061Y-87204268D01*
X129148818Y-87195930D01*
X129170810Y-87137939D01*
X129172243Y-87134480D01*
X129195223Y-87083422D01*
X129240687Y-87030371D01*
X129307617Y-87010319D01*
X129374764Y-87029636D01*
G37*
%TD.AperFunction*%
%TA.AperFunction,Conductor*%
G36*
X141490519Y-85175185D02*
G01*
X141511073Y-85191731D01*
X141511573Y-85192230D01*
X141545120Y-85253520D01*
X141540205Y-85323216D01*
X141511662Y-85367680D01*
X141409529Y-85469813D01*
X141321522Y-85615393D01*
X141270913Y-85777807D01*
X141264500Y-85848386D01*
X141264500Y-86361613D01*
X141270913Y-86432192D01*
X141270913Y-86432194D01*
X141270914Y-86432196D01*
X141321522Y-86594606D01*
X141409528Y-86740185D01*
X141431837Y-86762494D01*
X141465322Y-86823815D01*
X141460339Y-86893506D01*
X141431837Y-86937856D01*
X141423472Y-86946221D01*
X141362149Y-86979706D01*
X141292457Y-86974722D01*
X141252447Y-86947496D01*
X141251195Y-86948887D01*
X141246364Y-86944537D01*
X141093234Y-86833282D01*
X141093229Y-86833279D01*
X140920307Y-86756288D01*
X140920302Y-86756286D01*
X140770516Y-86724449D01*
X140735146Y-86716931D01*
X140545854Y-86716931D01*
X140406869Y-86746473D01*
X140337202Y-86741156D01*
X140306778Y-86724449D01*
X140296735Y-86716931D01*
X140242331Y-86676204D01*
X140242329Y-86676203D01*
X140242328Y-86676202D01*
X140108215Y-86626182D01*
X140052281Y-86584311D01*
X140027864Y-86518847D01*
X140042715Y-86450574D01*
X140092120Y-86401168D01*
X140108215Y-86393818D01*
X140242328Y-86343797D01*
X140242327Y-86343797D01*
X140242331Y-86343796D01*
X140321228Y-86284733D01*
X140386693Y-86260316D01*
X140395540Y-86260000D01*
X140500000Y-86260000D01*
X140500000Y-86102172D01*
X140499999Y-86102160D01*
X140493380Y-86040604D01*
X140493380Y-86014090D01*
X140494090Y-86007485D01*
X140494091Y-86007483D01*
X140500500Y-85947873D01*
X140500499Y-85331517D01*
X140520183Y-85264479D01*
X140536814Y-85243841D01*
X140588838Y-85191818D01*
X140650161Y-85158334D01*
X140676518Y-85155500D01*
X141423480Y-85155500D01*
X141490519Y-85175185D01*
G37*
%TD.AperFunction*%
%TD*%
M02*
