%TF.GenerationSoftware,KiCad,Pcbnew,7.0.7*%
%TF.CreationDate,2024-04-15T22:19:54-04:00*%
%TF.ProjectId,apds9960_breakout,61706473-3939-4363-905f-627265616b6f,rev?*%
%TF.SameCoordinates,Original*%
%TF.FileFunction,Copper,L2,Bot*%
%TF.FilePolarity,Positive*%
%FSLAX46Y46*%
G04 Gerber Fmt 4.6, Leading zero omitted, Abs format (unit mm)*
G04 Created by KiCad (PCBNEW 7.0.7) date 2024-04-15 22:19:54*
%MOMM*%
%LPD*%
G01*
G04 APERTURE LIST*
%TA.AperFunction,ComponentPad*%
%ADD10R,1.700000X1.700000*%
%TD*%
%TA.AperFunction,ComponentPad*%
%ADD11O,1.700000X1.700000*%
%TD*%
%TA.AperFunction,ViaPad*%
%ADD12C,0.800000*%
%TD*%
%TA.AperFunction,Conductor*%
%ADD13C,0.400000*%
%TD*%
G04 APERTURE END LIST*
D10*
%TO.P,J1,1,Pin_1*%
%TO.N,SDA*%
X126365000Y-85090000D03*
D11*
%TO.P,J1,2,Pin_2*%
%TO.N,SCL*%
X126365000Y-87630000D03*
%TO.P,J1,3,Pin_3*%
%TO.N,+3V3*%
X126365000Y-90170000D03*
%TO.P,J1,4,Pin_4*%
%TO.N,GND*%
X126365000Y-92710000D03*
%TD*%
D10*
%TO.P,J2,1,Pin_1*%
%TO.N,SDA*%
X141605000Y-92710000D03*
D11*
%TO.P,J2,2,Pin_2*%
%TO.N,SCL*%
X139065000Y-92710000D03*
%TO.P,J2,3,Pin_3*%
%TO.N,Net-(J2-Pin_3)*%
X136525000Y-92710000D03*
%TO.P,J2,4,Pin_4*%
%TO.N,+3V3*%
X133985000Y-92710000D03*
%TO.P,J2,5,Pin_5*%
%TO.N,GND*%
X131445000Y-92710000D03*
%TD*%
D12*
%TO.N,+3V3*%
X143764000Y-84582000D03*
X133858000Y-85598000D03*
%TO.N,GND*%
X128778000Y-88900000D03*
X133096000Y-87630000D03*
%TO.N,Net-(U1-VCC)*%
X143383000Y-86106000D03*
X141204832Y-89287832D03*
%TO.N,SDA*%
X128778000Y-84582000D03*
X136906000Y-88392000D03*
%TO.N,SCL*%
X140640500Y-87617431D03*
X131572000Y-84873500D03*
%TD*%
D13*
%TO.N,SCL*%
X130817500Y-87630000D02*
X130847500Y-87600000D01*
X126365000Y-87630000D02*
X130817500Y-87630000D01*
X130847500Y-87600000D02*
X130847500Y-88175500D01*
X130847500Y-85598000D02*
X130847500Y-87600000D01*
%TO.N,+3V3*%
X139192000Y-85598000D02*
X140208000Y-84582000D01*
X140208000Y-84582000D02*
X143764000Y-84582000D01*
X133858000Y-85598000D02*
X139192000Y-85598000D01*
%TO.N,Net-(U1-VCC)*%
X142367000Y-88011000D02*
X142367000Y-87122000D01*
X141204832Y-89287832D02*
X141979168Y-89287832D01*
X142367000Y-88900000D02*
X142367000Y-88011000D01*
X141979168Y-89287832D02*
X142367000Y-88900000D01*
X142367000Y-87122000D02*
X143383000Y-86106000D01*
%TO.N,SDA*%
X131903871Y-84074000D02*
X132588000Y-84758129D01*
X128778000Y-84582000D02*
X129286000Y-84074000D01*
X132296000Y-88100000D02*
X133004000Y-88808000D01*
X129286000Y-84074000D02*
X131903871Y-84074000D01*
X132588000Y-87006629D02*
X132296000Y-87298629D01*
X132296000Y-87298629D02*
X132296000Y-88100000D01*
X136490000Y-88808000D02*
X136906000Y-88392000D01*
X132588000Y-84758129D02*
X132588000Y-87006629D01*
X133004000Y-88808000D02*
X136490000Y-88808000D01*
%TO.N,SCL*%
X130847500Y-88175500D02*
X132080000Y-89408000D01*
X138938000Y-89408000D02*
X139954000Y-89408000D01*
X130847500Y-85598000D02*
X131572000Y-84873500D01*
%TO.N,SDA*%
X126365000Y-85090000D02*
X126873000Y-85598000D01*
%TO.N,SCL*%
X139065000Y-89535000D02*
X138938000Y-89408000D01*
X132080000Y-89408000D02*
X138938000Y-89408000D01*
X139065000Y-92710000D02*
X139065000Y-89535000D01*
X140640500Y-87617431D02*
X140640500Y-88721500D01*
X140640500Y-88721500D02*
X139954000Y-89408000D01*
%TD*%
%TA.AperFunction,Conductor*%
%TO.N,GND*%
G36*
X128510480Y-83505185D02*
G01*
X128556235Y-83557989D01*
X128566179Y-83627147D01*
X128537154Y-83690703D01*
X128493877Y-83722779D01*
X128325270Y-83797848D01*
X128325265Y-83797851D01*
X128172129Y-83909111D01*
X128045466Y-84049785D01*
X127950820Y-84213717D01*
X127950472Y-84214500D01*
X127950149Y-84214878D01*
X127947572Y-84219344D01*
X127946755Y-84218872D01*
X127905217Y-84267734D01*
X127838367Y-84288050D01*
X127771144Y-84269000D01*
X127724893Y-84216630D01*
X127713906Y-84177309D01*
X127709091Y-84132516D01*
X127658797Y-83997671D01*
X127658793Y-83997664D01*
X127572547Y-83882455D01*
X127572544Y-83882452D01*
X127457335Y-83796206D01*
X127457328Y-83796202D01*
X127322482Y-83745908D01*
X127322483Y-83745908D01*
X127262883Y-83739501D01*
X127262881Y-83739500D01*
X127262873Y-83739500D01*
X127262864Y-83739500D01*
X125467129Y-83739500D01*
X125467123Y-83739501D01*
X125407516Y-83745908D01*
X125272671Y-83796202D01*
X125272664Y-83796206D01*
X125157455Y-83882452D01*
X125157452Y-83882455D01*
X125071206Y-83997664D01*
X125071202Y-83997671D01*
X125020908Y-84132517D01*
X125014501Y-84192116D01*
X125014500Y-84192135D01*
X125014500Y-85987870D01*
X125014501Y-85987876D01*
X125020908Y-86047483D01*
X125071202Y-86182328D01*
X125071206Y-86182335D01*
X125157452Y-86297544D01*
X125157455Y-86297547D01*
X125272664Y-86383793D01*
X125272671Y-86383797D01*
X125404081Y-86432810D01*
X125460015Y-86474681D01*
X125484432Y-86540145D01*
X125469580Y-86608418D01*
X125448430Y-86636673D01*
X125326503Y-86758600D01*
X125190965Y-86952169D01*
X125190964Y-86952171D01*
X125091098Y-87166335D01*
X125091094Y-87166344D01*
X125029938Y-87394586D01*
X125029936Y-87394596D01*
X125009341Y-87629999D01*
X125009341Y-87630000D01*
X125029936Y-87865403D01*
X125029938Y-87865413D01*
X125091094Y-88093655D01*
X125091096Y-88093659D01*
X125091097Y-88093663D01*
X125142427Y-88203740D01*
X125190965Y-88307830D01*
X125190967Y-88307834D01*
X125326501Y-88501395D01*
X125326506Y-88501402D01*
X125493597Y-88668493D01*
X125493603Y-88668498D01*
X125679158Y-88798425D01*
X125722783Y-88853002D01*
X125729977Y-88922500D01*
X125698454Y-88984855D01*
X125679158Y-89001575D01*
X125493597Y-89131505D01*
X125326505Y-89298597D01*
X125190965Y-89492169D01*
X125190964Y-89492171D01*
X125091098Y-89706335D01*
X125091094Y-89706344D01*
X125029938Y-89934586D01*
X125029936Y-89934596D01*
X125009341Y-90169999D01*
X125009341Y-90170000D01*
X125029936Y-90405403D01*
X125029938Y-90405413D01*
X125091094Y-90633655D01*
X125091096Y-90633659D01*
X125091097Y-90633663D01*
X125175108Y-90813824D01*
X125190965Y-90847830D01*
X125190967Y-90847834D01*
X125279710Y-90974571D01*
X125326505Y-91041401D01*
X125493599Y-91208495D01*
X125676747Y-91336737D01*
X125679594Y-91338730D01*
X125723219Y-91393307D01*
X125730413Y-91462805D01*
X125698890Y-91525160D01*
X125679595Y-91541880D01*
X125493922Y-91671890D01*
X125493920Y-91671891D01*
X125326891Y-91838920D01*
X125326886Y-91838926D01*
X125191400Y-92032420D01*
X125191399Y-92032422D01*
X125091570Y-92246507D01*
X125091567Y-92246513D01*
X125034364Y-92459999D01*
X125034364Y-92460000D01*
X125751653Y-92460000D01*
X125818692Y-92479685D01*
X125864447Y-92532489D01*
X125874391Y-92601647D01*
X125870631Y-92618933D01*
X125865000Y-92638111D01*
X125865000Y-92781888D01*
X125870631Y-92801067D01*
X125870630Y-92870936D01*
X125832855Y-92929714D01*
X125769299Y-92958738D01*
X125751653Y-92960000D01*
X125034364Y-92960000D01*
X125091567Y-93173486D01*
X125091570Y-93173492D01*
X125191399Y-93387578D01*
X125326894Y-93581082D01*
X125493917Y-93748105D01*
X125687421Y-93883600D01*
X125901507Y-93983429D01*
X125901516Y-93983433D01*
X126114998Y-94040635D01*
X126114999Y-94040634D01*
X126114999Y-93322301D01*
X126134684Y-93255262D01*
X126187488Y-93209507D01*
X126256646Y-93199563D01*
X126263380Y-93200531D01*
X126329237Y-93210000D01*
X126329238Y-93210000D01*
X126400762Y-93210000D01*
X126400763Y-93210000D01*
X126473353Y-93199563D01*
X126542512Y-93209507D01*
X126595315Y-93255262D01*
X126615000Y-93322301D01*
X126615000Y-94040633D01*
X126828483Y-93983433D01*
X126828492Y-93983429D01*
X127042578Y-93883600D01*
X127236082Y-93748105D01*
X127403105Y-93581082D01*
X127538600Y-93387578D01*
X127638429Y-93173492D01*
X127638432Y-93173486D01*
X127695636Y-92960000D01*
X126978347Y-92960000D01*
X126911308Y-92940315D01*
X126865553Y-92887511D01*
X126855609Y-92818353D01*
X126859369Y-92801067D01*
X126865000Y-92781888D01*
X126865000Y-92638111D01*
X126859369Y-92618933D01*
X126859370Y-92549064D01*
X126897145Y-92490286D01*
X126960701Y-92461262D01*
X126978347Y-92460000D01*
X127695636Y-92460000D01*
X127695635Y-92459999D01*
X127638432Y-92246513D01*
X127638429Y-92246507D01*
X127538600Y-92032422D01*
X127538599Y-92032420D01*
X127403113Y-91838926D01*
X127403108Y-91838920D01*
X127236078Y-91671890D01*
X127050405Y-91541879D01*
X127006780Y-91487302D01*
X126999588Y-91417804D01*
X127031110Y-91355449D01*
X127050406Y-91338730D01*
X127236401Y-91208495D01*
X127403495Y-91041401D01*
X127539035Y-90847830D01*
X127638903Y-90633663D01*
X127700063Y-90405408D01*
X127720659Y-90170000D01*
X127700063Y-89934592D01*
X127653626Y-89761285D01*
X127638905Y-89706344D01*
X127638904Y-89706343D01*
X127638903Y-89706337D01*
X127539035Y-89492171D01*
X127481703Y-89410291D01*
X127403494Y-89298597D01*
X127236402Y-89131506D01*
X127236396Y-89131501D01*
X127050842Y-89001575D01*
X127007217Y-88946998D01*
X127000023Y-88877500D01*
X127031546Y-88815145D01*
X127050842Y-88798425D01*
X127073026Y-88782891D01*
X127236401Y-88668495D01*
X127403495Y-88501401D01*
X127486136Y-88383376D01*
X127540713Y-88339752D01*
X127587711Y-88330500D01*
X130068910Y-88330500D01*
X130135949Y-88350185D01*
X130181704Y-88402989D01*
X130181986Y-88403609D01*
X130199259Y-88441990D01*
X130200689Y-88445441D01*
X130222682Y-88503430D01*
X130227326Y-88510157D01*
X130228436Y-88511766D01*
X130239461Y-88531313D01*
X130243620Y-88540555D01*
X130243624Y-88540560D01*
X130281871Y-88589378D01*
X130284091Y-88592396D01*
X130319312Y-88643424D01*
X130319316Y-88643428D01*
X130319317Y-88643429D01*
X130365750Y-88684564D01*
X130368441Y-88687098D01*
X131568399Y-89887056D01*
X131570935Y-89889750D01*
X131611291Y-89935302D01*
X131612073Y-89936185D01*
X131633835Y-89951206D01*
X131663117Y-89971417D01*
X131666107Y-89973617D01*
X131714943Y-90011878D01*
X131724171Y-90016031D01*
X131724180Y-90016035D01*
X131743726Y-90027058D01*
X131752070Y-90032818D01*
X131810044Y-90054804D01*
X131810052Y-90054807D01*
X131813514Y-90056241D01*
X131870068Y-90081694D01*
X131880030Y-90083519D01*
X131901651Y-90089546D01*
X131901667Y-90089552D01*
X131911128Y-90093140D01*
X131927871Y-90095173D01*
X131972689Y-90100615D01*
X131976386Y-90101177D01*
X132037394Y-90112357D01*
X132037395Y-90112356D01*
X132037396Y-90112357D01*
X132099293Y-90108613D01*
X132103037Y-90108500D01*
X138240500Y-90108500D01*
X138307539Y-90128185D01*
X138353294Y-90180989D01*
X138364500Y-90232500D01*
X138364500Y-91487288D01*
X138344815Y-91554327D01*
X138311624Y-91588863D01*
X138193594Y-91671508D01*
X138026505Y-91838597D01*
X137896575Y-92024158D01*
X137841998Y-92067783D01*
X137772500Y-92074977D01*
X137710145Y-92043454D01*
X137693425Y-92024158D01*
X137563494Y-91838597D01*
X137396402Y-91671506D01*
X137396395Y-91671501D01*
X137202834Y-91535967D01*
X137202830Y-91535965D01*
X137179659Y-91525160D01*
X136988663Y-91436097D01*
X136988659Y-91436096D01*
X136988655Y-91436094D01*
X136760413Y-91374938D01*
X136760403Y-91374936D01*
X136525001Y-91354341D01*
X136524999Y-91354341D01*
X136289596Y-91374936D01*
X136289586Y-91374938D01*
X136061344Y-91436094D01*
X136061335Y-91436098D01*
X135847171Y-91535964D01*
X135847169Y-91535965D01*
X135653597Y-91671505D01*
X135486505Y-91838597D01*
X135356575Y-92024158D01*
X135301998Y-92067783D01*
X135232500Y-92074977D01*
X135170145Y-92043454D01*
X135153425Y-92024158D01*
X135023494Y-91838597D01*
X134856402Y-91671506D01*
X134856395Y-91671501D01*
X134662834Y-91535967D01*
X134662830Y-91535965D01*
X134639659Y-91525160D01*
X134448663Y-91436097D01*
X134448659Y-91436096D01*
X134448655Y-91436094D01*
X134220413Y-91374938D01*
X134220403Y-91374936D01*
X133985001Y-91354341D01*
X133984999Y-91354341D01*
X133749596Y-91374936D01*
X133749586Y-91374938D01*
X133521344Y-91436094D01*
X133521335Y-91436098D01*
X133307171Y-91535964D01*
X133307169Y-91535965D01*
X133113597Y-91671505D01*
X132946508Y-91838594D01*
X132816269Y-92024595D01*
X132761692Y-92068219D01*
X132692193Y-92075412D01*
X132629839Y-92043890D01*
X132613119Y-92024594D01*
X132483113Y-91838926D01*
X132483108Y-91838920D01*
X132316082Y-91671894D01*
X132122578Y-91536399D01*
X131908492Y-91436570D01*
X131908486Y-91436567D01*
X131695000Y-91379364D01*
X131694999Y-91379364D01*
X131695000Y-92097698D01*
X131675315Y-92164737D01*
X131622511Y-92210492D01*
X131553355Y-92220436D01*
X131480766Y-92210000D01*
X131480763Y-92210000D01*
X131409237Y-92210000D01*
X131409233Y-92210000D01*
X131336644Y-92220436D01*
X131267486Y-92210492D01*
X131214683Y-92164736D01*
X131194999Y-92097698D01*
X131194998Y-91379364D01*
X130981505Y-91436570D01*
X130767422Y-91536399D01*
X130767420Y-91536400D01*
X130573926Y-91671886D01*
X130573920Y-91671891D01*
X130406891Y-91838920D01*
X130406886Y-91838926D01*
X130271400Y-92032420D01*
X130271399Y-92032422D01*
X130171570Y-92246507D01*
X130171567Y-92246513D01*
X130114364Y-92459999D01*
X130114364Y-92460000D01*
X130831653Y-92460000D01*
X130898692Y-92479685D01*
X130944447Y-92532489D01*
X130954391Y-92601647D01*
X130950631Y-92618933D01*
X130945000Y-92638111D01*
X130945000Y-92781888D01*
X130950631Y-92801067D01*
X130950630Y-92870936D01*
X130912855Y-92929714D01*
X130849299Y-92958738D01*
X130831653Y-92960000D01*
X130114364Y-92960000D01*
X130171567Y-93173486D01*
X130171570Y-93173492D01*
X130271399Y-93387578D01*
X130406894Y-93581082D01*
X130573917Y-93748105D01*
X130767421Y-93883600D01*
X130981507Y-93983429D01*
X130981516Y-93983433D01*
X131194998Y-94040635D01*
X131194998Y-94040634D01*
X131194999Y-93322301D01*
X131214684Y-93255262D01*
X131267488Y-93209507D01*
X131336646Y-93199563D01*
X131343380Y-93200531D01*
X131409237Y-93210000D01*
X131409238Y-93210000D01*
X131480762Y-93210000D01*
X131480763Y-93210000D01*
X131553353Y-93199563D01*
X131622512Y-93209507D01*
X131675315Y-93255262D01*
X131695000Y-93322301D01*
X131695000Y-94040634D01*
X131908483Y-93983433D01*
X131908492Y-93983429D01*
X132122578Y-93883600D01*
X132316082Y-93748105D01*
X132483105Y-93581082D01*
X132613119Y-93395405D01*
X132667696Y-93351781D01*
X132737195Y-93344588D01*
X132799549Y-93376110D01*
X132816269Y-93395405D01*
X132946505Y-93581401D01*
X133113599Y-93748495D01*
X133210384Y-93816265D01*
X133307165Y-93884032D01*
X133307167Y-93884033D01*
X133307170Y-93884035D01*
X133521337Y-93983903D01*
X133749592Y-94045063D01*
X133926034Y-94060500D01*
X133984999Y-94065659D01*
X133985000Y-94065659D01*
X133985001Y-94065659D01*
X134043966Y-94060500D01*
X134220408Y-94045063D01*
X134448663Y-93983903D01*
X134662830Y-93884035D01*
X134856401Y-93748495D01*
X135023495Y-93581401D01*
X135153424Y-93395842D01*
X135208002Y-93352217D01*
X135277500Y-93345023D01*
X135339855Y-93376546D01*
X135356575Y-93395842D01*
X135486281Y-93581082D01*
X135486505Y-93581401D01*
X135653599Y-93748495D01*
X135750384Y-93816265D01*
X135847165Y-93884032D01*
X135847167Y-93884033D01*
X135847170Y-93884035D01*
X136061337Y-93983903D01*
X136289592Y-94045063D01*
X136466034Y-94060500D01*
X136524999Y-94065659D01*
X136525000Y-94065659D01*
X136525001Y-94065659D01*
X136583966Y-94060500D01*
X136760408Y-94045063D01*
X136988663Y-93983903D01*
X137202830Y-93884035D01*
X137396401Y-93748495D01*
X137563495Y-93581401D01*
X137693424Y-93395842D01*
X137748002Y-93352217D01*
X137817500Y-93345023D01*
X137879855Y-93376546D01*
X137896575Y-93395842D01*
X138026281Y-93581082D01*
X138026505Y-93581401D01*
X138193599Y-93748495D01*
X138290384Y-93816265D01*
X138387165Y-93884032D01*
X138387167Y-93884033D01*
X138387170Y-93884035D01*
X138601337Y-93983903D01*
X138829592Y-94045063D01*
X139006034Y-94060500D01*
X139064999Y-94065659D01*
X139065000Y-94065659D01*
X139065001Y-94065659D01*
X139123966Y-94060500D01*
X139300408Y-94045063D01*
X139528663Y-93983903D01*
X139742830Y-93884035D01*
X139936401Y-93748495D01*
X140058329Y-93626566D01*
X140119648Y-93593084D01*
X140189340Y-93598068D01*
X140245274Y-93639939D01*
X140262189Y-93670917D01*
X140311202Y-93802328D01*
X140311206Y-93802335D01*
X140397452Y-93917544D01*
X140397455Y-93917547D01*
X140512664Y-94003793D01*
X140512671Y-94003797D01*
X140647517Y-94054091D01*
X140647516Y-94054091D01*
X140654444Y-94054835D01*
X140707127Y-94060500D01*
X142502872Y-94060499D01*
X142562483Y-94054091D01*
X142697331Y-94003796D01*
X142812546Y-93917546D01*
X142898796Y-93802331D01*
X142949091Y-93667483D01*
X142955500Y-93607873D01*
X142955499Y-91812128D01*
X142949091Y-91752517D01*
X142947810Y-91749083D01*
X142898797Y-91617671D01*
X142898793Y-91617664D01*
X142812547Y-91502455D01*
X142812544Y-91502452D01*
X142697335Y-91416206D01*
X142697328Y-91416202D01*
X142562482Y-91365908D01*
X142562483Y-91365908D01*
X142502883Y-91359501D01*
X142502881Y-91359500D01*
X142502873Y-91359500D01*
X142502864Y-91359500D01*
X140707129Y-91359500D01*
X140707123Y-91359501D01*
X140647516Y-91365908D01*
X140512671Y-91416202D01*
X140512664Y-91416206D01*
X140397455Y-91502452D01*
X140397452Y-91502455D01*
X140311206Y-91617664D01*
X140311203Y-91617669D01*
X140262189Y-91749083D01*
X140220317Y-91805016D01*
X140154853Y-91829433D01*
X140086580Y-91814581D01*
X140058326Y-91793430D01*
X139936404Y-91671508D01*
X139936402Y-91671506D01*
X139936401Y-91671505D01*
X139936396Y-91671501D01*
X139936393Y-91671499D01*
X139818376Y-91588861D01*
X139774751Y-91534284D01*
X139765500Y-91487287D01*
X139765500Y-90232500D01*
X139785185Y-90165461D01*
X139837989Y-90119706D01*
X139889500Y-90108500D01*
X139930952Y-90108500D01*
X139934697Y-90108613D01*
X139942042Y-90109057D01*
X139996606Y-90112358D01*
X140034314Y-90105447D01*
X140057621Y-90101177D01*
X140061325Y-90100613D01*
X140079170Y-90098446D01*
X140122872Y-90093140D01*
X140132335Y-90089550D01*
X140153961Y-90083522D01*
X140154893Y-90083351D01*
X140163932Y-90081695D01*
X140220512Y-90056229D01*
X140223948Y-90054807D01*
X140281930Y-90032818D01*
X140290266Y-90027062D01*
X140309821Y-90016034D01*
X140319057Y-90011878D01*
X140367896Y-89973613D01*
X140370876Y-89971421D01*
X140421929Y-89936183D01*
X140421929Y-89936182D01*
X140427805Y-89932127D01*
X140494159Y-89910244D01*
X140561811Y-89927710D01*
X140590393Y-89951204D01*
X140598961Y-89960720D01*
X140598962Y-89960721D01*
X140598967Y-89960725D01*
X140752097Y-90071980D01*
X140752102Y-90071983D01*
X140925024Y-90148974D01*
X140925029Y-90148976D01*
X141110186Y-90188332D01*
X141110187Y-90188332D01*
X141299476Y-90188332D01*
X141299478Y-90188332D01*
X141484635Y-90148976D01*
X141657562Y-90071983D01*
X141719391Y-90027062D01*
X141740103Y-90012014D01*
X141805909Y-89988534D01*
X141812988Y-89988332D01*
X141956120Y-89988332D01*
X141959865Y-89988445D01*
X141967210Y-89988889D01*
X142021774Y-89992190D01*
X142059482Y-89985279D01*
X142082789Y-89981009D01*
X142086493Y-89980445D01*
X142104338Y-89978278D01*
X142148040Y-89972972D01*
X142157503Y-89969382D01*
X142179129Y-89963354D01*
X142180061Y-89963183D01*
X142189100Y-89961527D01*
X142245680Y-89936061D01*
X142249110Y-89934641D01*
X142307098Y-89912650D01*
X142315434Y-89906894D01*
X142334989Y-89895866D01*
X142344225Y-89891710D01*
X142393064Y-89853445D01*
X142396044Y-89851253D01*
X142447097Y-89816015D01*
X142488233Y-89769580D01*
X142490767Y-89766888D01*
X142846056Y-89411599D01*
X142848748Y-89409065D01*
X142895183Y-89367929D01*
X142930427Y-89316866D01*
X142932617Y-89313890D01*
X142970877Y-89265057D01*
X142975029Y-89255828D01*
X142986062Y-89236268D01*
X142986419Y-89235750D01*
X142991818Y-89227930D01*
X143013812Y-89169933D01*
X143015231Y-89166505D01*
X143040694Y-89109932D01*
X143042520Y-89099965D01*
X143048548Y-89078340D01*
X143052140Y-89068872D01*
X143059615Y-89007309D01*
X143060179Y-89003605D01*
X143064456Y-88980258D01*
X143071357Y-88942606D01*
X143067613Y-88880707D01*
X143067500Y-88876963D01*
X143067500Y-88713763D01*
X145211787Y-88713763D01*
X145241413Y-88983013D01*
X145241415Y-88983024D01*
X145307622Y-89236268D01*
X145309928Y-89245088D01*
X145415870Y-89494390D01*
X145487998Y-89612575D01*
X145556979Y-89725605D01*
X145556986Y-89725615D01*
X145730253Y-89933819D01*
X145730259Y-89933824D01*
X145834327Y-90027069D01*
X145931998Y-90114582D01*
X146157910Y-90264044D01*
X146403176Y-90379020D01*
X146403183Y-90379022D01*
X146403185Y-90379023D01*
X146662557Y-90457057D01*
X146662564Y-90457058D01*
X146662569Y-90457060D01*
X146930561Y-90496500D01*
X146930566Y-90496500D01*
X147133636Y-90496500D01*
X147185133Y-90492730D01*
X147336156Y-90481677D01*
X147448758Y-90456593D01*
X147600546Y-90422782D01*
X147600548Y-90422781D01*
X147600553Y-90422780D01*
X147853558Y-90326014D01*
X148089777Y-90193441D01*
X148304177Y-90027888D01*
X148492186Y-89832881D01*
X148649799Y-89612579D01*
X148753121Y-89411616D01*
X148773649Y-89371690D01*
X148773651Y-89371684D01*
X148773656Y-89371675D01*
X148861118Y-89115305D01*
X148910319Y-88848933D01*
X148920212Y-88578235D01*
X148890586Y-88308982D01*
X148822072Y-88046912D01*
X148716130Y-87797610D01*
X148575018Y-87566390D01*
X148545447Y-87530857D01*
X148401746Y-87358180D01*
X148401740Y-87358175D01*
X148200002Y-87177418D01*
X147974092Y-87027957D01*
X147928320Y-87006500D01*
X147728824Y-86912980D01*
X147728819Y-86912978D01*
X147728814Y-86912976D01*
X147469442Y-86834942D01*
X147469428Y-86834939D01*
X147353791Y-86817921D01*
X147201439Y-86795500D01*
X146998369Y-86795500D01*
X146998364Y-86795500D01*
X146795844Y-86810323D01*
X146795831Y-86810325D01*
X146531453Y-86869217D01*
X146531446Y-86869220D01*
X146278439Y-86965987D01*
X146042226Y-87098557D01*
X146042224Y-87098558D01*
X146042223Y-87098559D01*
X146012693Y-87121361D01*
X145827822Y-87264112D01*
X145639822Y-87459109D01*
X145639816Y-87459116D01*
X145482202Y-87679419D01*
X145482199Y-87679424D01*
X145358350Y-87920309D01*
X145358343Y-87920327D01*
X145270884Y-88176685D01*
X145270881Y-88176699D01*
X145265886Y-88203744D01*
X145222349Y-88439454D01*
X145221681Y-88443068D01*
X145221680Y-88443075D01*
X145211787Y-88713763D01*
X143067500Y-88713763D01*
X143067500Y-87463519D01*
X143087185Y-87396480D01*
X143103819Y-87375838D01*
X143273055Y-87206602D01*
X143445975Y-87033681D01*
X143507296Y-87000198D01*
X143507362Y-87000183D01*
X143662803Y-86967144D01*
X143662807Y-86967142D01*
X143662808Y-86967142D01*
X143747352Y-86929500D01*
X143835730Y-86890151D01*
X143988871Y-86778888D01*
X144115533Y-86638216D01*
X144210179Y-86474284D01*
X144268674Y-86294256D01*
X144288460Y-86106000D01*
X144268674Y-85917744D01*
X144210179Y-85737716D01*
X144142820Y-85621047D01*
X144112284Y-85568156D01*
X144113635Y-85567375D01*
X144092810Y-85509036D01*
X144108626Y-85440980D01*
X144158725Y-85392278D01*
X144166143Y-85388673D01*
X144216730Y-85366151D01*
X144369871Y-85254888D01*
X144496533Y-85114216D01*
X144591179Y-84950284D01*
X144649674Y-84770256D01*
X144669460Y-84582000D01*
X144649674Y-84393744D01*
X144591179Y-84213716D01*
X144496533Y-84049784D01*
X144369871Y-83909112D01*
X144369870Y-83909111D01*
X144216734Y-83797851D01*
X144216729Y-83797848D01*
X144048123Y-83722779D01*
X143994886Y-83677529D01*
X143974565Y-83610680D01*
X143993611Y-83543456D01*
X144045977Y-83497201D01*
X144098559Y-83485500D01*
X147082405Y-83485500D01*
X147128471Y-83485500D01*
X147131513Y-83485575D01*
X147489571Y-83503165D01*
X147495624Y-83503760D01*
X147848724Y-83556138D01*
X147854676Y-83557321D01*
X148133437Y-83627147D01*
X148200953Y-83644059D01*
X148206774Y-83645824D01*
X148542867Y-83766081D01*
X148548486Y-83768409D01*
X148871181Y-83921031D01*
X148876539Y-83923894D01*
X149175302Y-84102966D01*
X149182713Y-84107408D01*
X149187775Y-84110790D01*
X149474494Y-84323436D01*
X149479198Y-84327296D01*
X149743699Y-84567025D01*
X149747974Y-84571300D01*
X149953519Y-84798085D01*
X149987701Y-84835799D01*
X149991563Y-84840505D01*
X150204209Y-85127224D01*
X150207591Y-85132286D01*
X150237778Y-85182650D01*
X150387899Y-85433112D01*
X150391098Y-85438448D01*
X150393968Y-85443818D01*
X150546590Y-85766513D01*
X150548920Y-85772137D01*
X150669173Y-86108220D01*
X150670940Y-86114046D01*
X150757674Y-86460304D01*
X150758861Y-86466275D01*
X150811238Y-86819370D01*
X150811834Y-86825428D01*
X150829425Y-87183486D01*
X150829500Y-87186529D01*
X150829500Y-90613470D01*
X150829425Y-90616513D01*
X150811834Y-90974571D01*
X150811238Y-90980629D01*
X150758861Y-91333724D01*
X150757674Y-91339695D01*
X150670940Y-91685953D01*
X150669173Y-91691779D01*
X150548920Y-92027862D01*
X150546590Y-92033486D01*
X150393968Y-92356181D01*
X150391098Y-92361551D01*
X150207591Y-92667713D01*
X150204209Y-92672775D01*
X149991563Y-92959494D01*
X149987701Y-92964200D01*
X149911782Y-93047965D01*
X149765370Y-93209507D01*
X149747989Y-93228684D01*
X149743689Y-93232983D01*
X149719109Y-93255262D01*
X149479200Y-93472701D01*
X149474494Y-93476563D01*
X149187775Y-93689209D01*
X149182713Y-93692591D01*
X148876551Y-93876098D01*
X148871181Y-93878968D01*
X148548486Y-94031590D01*
X148542862Y-94033920D01*
X148206779Y-94154173D01*
X148200953Y-94155940D01*
X147854695Y-94242674D01*
X147848724Y-94243861D01*
X147495629Y-94296238D01*
X147489571Y-94296834D01*
X147131514Y-94314425D01*
X147128471Y-94314500D01*
X124884500Y-94314500D01*
X124817461Y-94294815D01*
X124771706Y-94242011D01*
X124760500Y-94190500D01*
X124760500Y-83609500D01*
X124780185Y-83542461D01*
X124832989Y-83496706D01*
X124884500Y-83485500D01*
X128443441Y-83485500D01*
X128510480Y-83505185D01*
G37*
%TD.AperFunction*%
%TA.AperFunction,Conductor*%
G36*
X142701271Y-85302185D02*
G01*
X142747026Y-85354989D01*
X142756970Y-85424147D01*
X142727945Y-85487703D01*
X142726382Y-85489472D01*
X142650466Y-85573785D01*
X142555821Y-85737715D01*
X142555818Y-85737722D01*
X142497327Y-85917739D01*
X142497325Y-85917750D01*
X142492134Y-85967129D01*
X142465549Y-86031743D01*
X142456495Y-86041846D01*
X141887966Y-86610375D01*
X141885240Y-86612942D01*
X141838818Y-86654068D01*
X141803586Y-86705109D01*
X141801368Y-86708124D01*
X141763124Y-86756939D01*
X141763119Y-86756948D01*
X141758960Y-86766188D01*
X141747942Y-86785723D01*
X141742187Y-86794061D01*
X141742183Y-86794067D01*
X141742182Y-86794070D01*
X141742180Y-86794074D01*
X141742179Y-86794077D01*
X141720189Y-86852055D01*
X141718757Y-86855513D01*
X141693305Y-86912068D01*
X141691477Y-86922042D01*
X141685453Y-86943653D01*
X141681860Y-86953127D01*
X141681859Y-86953128D01*
X141674384Y-87014685D01*
X141673821Y-87018386D01*
X141662642Y-87079390D01*
X141662642Y-87079395D01*
X141665180Y-87121361D01*
X141649579Y-87189466D01*
X141599633Y-87238326D01*
X141531201Y-87252426D01*
X141466009Y-87227291D01*
X141434020Y-87190849D01*
X141373033Y-87085215D01*
X141246371Y-86944543D01*
X141215401Y-86922042D01*
X141093234Y-86833282D01*
X141093229Y-86833279D01*
X140920307Y-86756288D01*
X140920302Y-86756286D01*
X140774500Y-86725296D01*
X140735146Y-86716931D01*
X140545854Y-86716931D01*
X140513397Y-86723829D01*
X140360697Y-86756286D01*
X140360692Y-86756288D01*
X140187770Y-86833279D01*
X140187765Y-86833282D01*
X140034629Y-86944542D01*
X139907966Y-87085216D01*
X139813321Y-87249146D01*
X139813318Y-87249153D01*
X139757647Y-87420492D01*
X139754826Y-87429175D01*
X139735040Y-87617431D01*
X139754826Y-87805687D01*
X139754827Y-87805690D01*
X139813318Y-87985708D01*
X139813321Y-87985715D01*
X139907966Y-88149646D01*
X139908148Y-88149848D01*
X139908216Y-88149990D01*
X139911785Y-88154902D01*
X139910886Y-88155554D01*
X139938379Y-88212839D01*
X139940000Y-88232822D01*
X139940000Y-88379981D01*
X139920315Y-88447020D01*
X139903681Y-88467662D01*
X139700162Y-88671181D01*
X139638839Y-88704666D01*
X139612481Y-88707500D01*
X139012927Y-88707500D01*
X138990576Y-88705469D01*
X138980607Y-88703642D01*
X138980603Y-88703642D01*
X138918697Y-88707387D01*
X138914952Y-88707500D01*
X137916016Y-88707500D01*
X137848977Y-88687815D01*
X137803222Y-88635011D01*
X137792695Y-88570539D01*
X137795846Y-88540557D01*
X137811460Y-88392000D01*
X137791674Y-88203744D01*
X137733179Y-88023716D01*
X137638533Y-87859784D01*
X137511871Y-87719112D01*
X137511870Y-87719111D01*
X137358734Y-87607851D01*
X137358729Y-87607848D01*
X137185807Y-87530857D01*
X137185802Y-87530855D01*
X137040001Y-87499865D01*
X137000646Y-87491500D01*
X136811354Y-87491500D01*
X136778897Y-87498398D01*
X136626197Y-87530855D01*
X136626192Y-87530857D01*
X136453270Y-87607848D01*
X136453265Y-87607851D01*
X136300129Y-87719111D01*
X136173466Y-87859785D01*
X136078821Y-88023715D01*
X136076175Y-88029659D01*
X136074567Y-88028943D01*
X136039992Y-88079500D01*
X135975631Y-88106693D01*
X135961506Y-88107500D01*
X133345519Y-88107500D01*
X133278480Y-88087815D01*
X133257838Y-88071181D01*
X133032818Y-87846161D01*
X132999333Y-87784838D01*
X132996499Y-87758487D01*
X132996499Y-87640146D01*
X133016184Y-87573108D01*
X133032813Y-87552471D01*
X133067056Y-87518228D01*
X133069748Y-87515694D01*
X133116183Y-87474558D01*
X133151427Y-87423495D01*
X133153617Y-87420519D01*
X133191877Y-87371686D01*
X133196029Y-87362457D01*
X133207062Y-87342897D01*
X133207419Y-87342379D01*
X133212818Y-87334559D01*
X133234812Y-87276562D01*
X133236231Y-87273134D01*
X133261694Y-87216561D01*
X133263520Y-87206594D01*
X133269548Y-87184969D01*
X133273140Y-87175501D01*
X133280615Y-87113938D01*
X133281179Y-87110234D01*
X133285763Y-87085215D01*
X133292357Y-87049235D01*
X133291219Y-87030428D01*
X133288613Y-86987336D01*
X133288500Y-86983592D01*
X133288500Y-86521105D01*
X133308185Y-86454066D01*
X133360989Y-86408311D01*
X133430147Y-86398367D01*
X133462936Y-86407826D01*
X133578192Y-86459142D01*
X133578197Y-86459144D01*
X133763354Y-86498500D01*
X133763355Y-86498500D01*
X133952644Y-86498500D01*
X133952646Y-86498500D01*
X134137803Y-86459144D01*
X134310730Y-86382151D01*
X134326320Y-86370823D01*
X134393271Y-86322182D01*
X134459077Y-86298702D01*
X134466156Y-86298500D01*
X139168952Y-86298500D01*
X139172697Y-86298613D01*
X139180042Y-86299057D01*
X139234606Y-86302358D01*
X139272314Y-86295447D01*
X139295621Y-86291177D01*
X139299325Y-86290613D01*
X139317170Y-86288446D01*
X139360872Y-86283140D01*
X139370335Y-86279550D01*
X139391961Y-86273522D01*
X139392893Y-86273351D01*
X139401932Y-86271695D01*
X139458512Y-86246229D01*
X139461942Y-86244809D01*
X139519930Y-86222818D01*
X139528266Y-86217062D01*
X139547821Y-86206034D01*
X139557057Y-86201878D01*
X139605896Y-86163613D01*
X139608876Y-86161421D01*
X139659929Y-86126183D01*
X139701065Y-86079748D01*
X139703599Y-86077056D01*
X140461837Y-85318819D01*
X140523161Y-85285334D01*
X140549519Y-85282500D01*
X142634232Y-85282500D01*
X142701271Y-85302185D01*
G37*
%TD.AperFunction*%
%TD*%
M02*
